<?xml version="1.0" standalone="no"?>
<!DOCTYPE svg PUBLIC "-//W3C//DTD SVG 1.1//EN" "http://www.w3.org/Graphics/SVG/1.1/DTD/svg11.dtd" >
<!--
2013-9-30: Created.
-->
<svg>
<metadata>
Created by iconfont
</metadata>
<defs>

<font id="iconfont" horiz-adv-x="1024" >
  <font-face
    font-family="iconfont"
    font-weight="500"
    font-stretch="normal"
    units-per-em="1024"
    ascent="896"
    descent="-128"
  />
    <missing-glyph />
    
    <glyph glyph-name="yaoyiyao" unicode="&#58892;" d="M575.3-55c-7.8 0-15.5 1.2-23.2 3.6L221.7 55.1c-39.5 12.7-61.3 55.2-48.6 94.7L307 565.4c5.6 17.5 24.5 27.1 41.8 21.4 17.5-5.6 27.1-24.3 21.4-41.8L236.3 129.4c-1.5-4.6 1.1-9.6 5.7-11.1l330.4-106.5c2.9-0.9 5.3-0.2 6.7 0.6 1.5 0.8 3.4 2.3 4.3 5.1l33.9 107.2 169.1 522.9c1.5 4.6-1 9.6-5.7 11.1L450.4 765.2c-2.9 0.9-5.2 0.2-6.7-0.6s-3.4-2.3-4.3-5.1L412 674.3c-5.6-17.5-24.3-27.2-41.8-21.4-17.5 5.6-27.1 24.3-21.4 41.8l27.4 85.2c6.2 19.1 19.4 34.7 37.3 43.9s38.3 10.8 57.4 4.7L801.3 722c39.5-12.7 61.2-55.2 48.6-94.7l-203-630c-6.2-19.3-19.4-34.9-37.3-44.1-10.8-5.4-22.5-8.2-34.3-8.2zM650.5 628c-1.7 0-3.4 0.3-5.1 0.8l-102.4 33c-8.7 2.8-13.5 12.2-10.7 20.9 2.8 8.7 12.2 13.4 20.9 10.7l102.4-33c8.7-2.8 13.5-12.2 10.7-20.9-2.3-7.1-8.8-11.5-15.8-11.5zM626.9 85c-1.7 0-3.4 0.3-5.1 0.8L245.2 207.1c-8.7 2.8-13.5 12.2-10.7 20.9 2.8 8.7 12.3 13.4 20.9 10.7L632 117.4c8.7-2.8 13.5-12.2 10.7-20.9-2.3-7-8.8-11.5-15.8-11.5zM415.557092 90.848193a18.9 18.9 0 1 1 11.589826 35.979382 18.9 18.9 0 1 1-11.589826-35.979382ZM853.4 430.8c-1.2 0-2.5 0.2-3.8 0.6-6.6 2.1-10.2 9.1-8.1 15.7L903 640.5c3 9.5 2.7 19.3-0.8 27.6-3.3 7.8-9.1 13.3-16.4 15.6-6.6 2.1-10.2 9.1-8.1 15.7 2.1 6.6 9.2 10.1 15.7 8 14.2-4.6 25.4-15 31.7-29.5 5.9-13.9 6.6-29.9 1.7-45l-61.5-193.4c-1.7-5.3-6.6-8.7-11.9-8.7zM886.4 369.7c-1.2 0-2.5 0.2-3.8 0.6-6.6 2.1-10.2 9.1-8.1 15.7L936 579.4c2.1 6.5 9.1 10.2 15.6 8.1 6.6-2.1 10.2-9.1 8.1-15.7l-61.5-193.4c-1.6-5.3-6.5-8.7-11.8-8.7zM134.1 48.8c-1.3 0-2.5 0.2-3.8 0.6-28.6 9.2-43.6 42.6-33.3 74.5l61.5 193.4c2.1 6.5 9.1 10.2 15.6 8.1 6.6-2.1 10.2-9.1 8.1-15.7l-61.5-193.4c-6-18.9 1.7-38.3 17.2-43.3 6.6-2.1 10.2-9.1 8.1-15.7-1.8-5.2-6.6-8.5-11.9-8.5zM75.8 168.7c-1.2 0-2.5 0.2-3.8 0.6-6.6 2.1-10.2 9.1-8.1 15.7l61.5 193.4c2.1 6.5 9.1 10.2 15.6 8.1 6.6-2.1 10.2-9.1 8.1-15.7L87.7 177.4c-1.7-5.3-6.6-8.7-11.9-8.7z"  horiz-adv-x="1024" />

    
    <glyph glyph-name="xiaolian" unicode="&#58893;" d="M333.5 484.6a67.6 35.4 90 1 1 70.8 0 67.6 35.4 90 1 1-70.8 0ZM620.8 484.6a67.6 35.4 90 1 1 70.8 0 67.6 35.4 90 1 1-70.8 0ZM512.6 88.79999999999995c-141.8 0-257.3 103.8-257.3 231.4 0 20.7 16.8 37.5 37.5 37.5h439.5c20.7 0 37.5-16.8 37.5-37.5 0-127.6-115.4-231.4-257.2-231.4z m-177 193.9c19.6-68.2 91.5-118.9 176.9-118.9s157.3 50.7 176.9 118.9H335.6zM512.6-64.20000000000005c-247.2 0-448.3 201.1-448.3 448.3 0 48.8 7.8 96.9 23.2 142.8 6.6 19.6 27.8 30.1 47.5 23.6 19.6-6.6 30.2-27.9 23.6-47.5-12.8-38.2-19.3-78.2-19.3-118.9 0-205.9 167.5-373.3 373.3-373.3s373.3 167.5 373.3 373.3-167.5 373.3-373.3 373.3c-116.8 0-224.7-53.1-296-145.8-12.7-16.4-36.2-19.4-52.6-6.9-16.4 12.6-19.5 36.2-6.9 52.6C242.7 768.7 372.3 832.5 512.6 832.5c247.2 0 448.3-201.1 448.3-448.3S759.8-64.20000000000005 512.6-64.20000000000005z"  horiz-adv-x="1024" />

    
    <glyph glyph-name="piaoliuping" unicode="&#58894;" d="M636.6 75c-51.7 0-109.6 10.6-173.5 31.8-80.5 26.8-144 35.5-194 26.7-18.6-3.3-40-17.9-53.9-30.5-13.4-12.2-34.2-11.2-46.4 2.2-12.2 13.4-11.2 34.2 2.2 46.4 12.9 11.7 47.1 39.6 86.7 46.6 61.8 10.8 133.7 1.6 226.1-29.1 105.5-35.1 192.8-37.5 252.4-7.1 51.6 26.3 66.1 68.4 66.3 68.8 5.5 17.3 24 26.8 41.3 21.4 17.3-5.5 26.9-24 21.4-41.3-0.9-2.8-22.4-68.4-99.1-107.4-37.3-19-80.6-28.5-129.5-28.5zM130.9-62c-3.4 0-6.9 0.5-10.3 1.7-17.2 5.7-26.6 24.3-20.8 41.5 15.4 46.3 117.9 149.4 403.4 72.7 306.9-82.6 362 55.6 364.2 61.5 6.2 16.8 24.8 25.8 41.8 19.8 16.9-6 26-24.2 20.3-41.2-2.8-8.4-72.9-203.2-443.4-103.6-237 63.8-316.9-8.6-323.9-29.9-4.7-13.8-17.5-22.5-31.3-22.5zM694.7 188.4c-1.9 0-3.8 0.2-5.7 0.5-17.9 3.1-29.8 20.2-26.7 38l30.2 171.8c-0.2 0 4 67.1-43.9 75.5l-32.4 5.7 47.7 271.4-31.9 5.6c-17.9 3.1-29.8 20.2-26.7 38 3.1 17.9 20 29.9 38 26.7l96.7-17-48.4-275.8c58-28.6 69.2-99.8 66.1-138.5L727 215.6c-2.8-16-16.7-27.2-32.3-27.2zM420.6 413.7c-2.9 0-5.9 0.4-8.8 1.2-17.4 4.8-27.7 22.8-22.9 40.2 10.2 37.4 45.1 100.6 109.3 107.7l48.4 275.8 96.7-17c17.9-3.1 29.8-20.2 26.7-38-3.1-17.9-20.1-29.8-38-26.7l-31.9 5.6-47.7-271.4-32.4 5.7c-47.8 8.2-66.9-56.4-67.7-59.2-4.2-14.4-17.4-23.9-31.7-23.9zM389.8 238.2c-1.9 0-3.8 0.2-5.7 0.5-17.9 3.1-29.8 20.2-26.7 38l7.8 44.6c3.1 17.9 20 29.9 38 26.7 17.9-3.1 29.8-20.2 26.7-38l-7.8-44.6c-2.8-15.9-16.6-27.2-32.3-27.2z"  horiz-adv-x="1024" />

    
    <glyph glyph-name="gouwu" unicode="&#58895;" d="M846.2-63.6H159.4v413c0 19.5 15.8 35.2 35.2 35.2s35.2-15.8 35.2-35.2v-342.5h545.9v548H229.9v-64.6c0-19.5-15.8-35.2-35.2-35.2s-35.2 15.8-35.2 35.2v64.6c0 38.8 31.6 70.4 70.4 70.4h545.9c38.8 0 70.4-31.6 70.4-70.4v-618.5zM677.7 436c-19.5 0-35.2 15.8-35.2 35.2V635.7c0 72.1-58.6 130.7-130.7 130.7s-130.7-58.6-130.7-130.7v-164.5c0-19.5-15.8-35.2-35.2-35.2-19.5 0-35.2 15.8-35.2 35.2V635.7c0 110.9 90.2 201.1 201.1 201.1S713 746.5 713 635.7v-164.5c0-19.5-15.8-35.2-35.3-35.2zM510.2 191.6l-82.7 118c-5.6 8-3.6 19 4.3 24.5 8 5.6 18.9 3.6 24.5-4.3l54.9-78.4 59.7 79c5.8 7.8 16.9 9.3 24.7 3.4 7.8-5.9 9.3-16.9 3.4-24.7l-88.8-117.5zM510.7 91.8c-9.7 0-17.6 7.9-17.6 17.6V218.7c0 9.7 7.9 17.6 17.6 17.6 9.7 0 17.6-7.9 17.6-17.6v-109.3c0-9.7-7.9-17.6-17.6-17.6zM568.1 131.3H451.4c-9.7 0-17.6 7.9-17.6 17.6 0 9.7 7.9 17.6 17.6 17.6h116.7c9.7 0 17.6-7.9 17.6-17.6 0-9.7-7.9-17.6-17.6-17.6zM568.9 180.6H452.2c-9.7 0-17.6 7.9-17.6 17.6 0 9.7 7.9 17.6 17.6 17.6h116.7c9.7 0 17.6-7.9 17.6-17.6 0-9.7-7.9-17.6-17.6-17.6z"  horiz-adv-x="1024" />

    
    <glyph glyph-name="youxi" unicode="&#58896;" d="M419.1 129.7h-95.3c-19.7 0-35.6 15.9-35.6 35.6 0 19.7 15.9 35.6 35.6 35.6h95.3c19.7 0 35.6-15.9 35.6-35.6 0-19.6-15.9-35.6-35.6-35.6zM371.5 82.1c-19.7 0-35.6 15.9-35.6 35.6V213c0 19.7 15.9 35.6 35.6 35.6s35.6-15.9 35.6-35.6v-95.3c0-19.7-16-35.6-35.6-35.6zM593.5 135.5m-29.9 0a29.9 29.9 0 1 1 59.8 0 29.9 29.9 0 1 1-59.8 0ZM668.6 183.2m-29.9 0a29.9 29.9 0 1 1 59.8 0 29.9 29.9 0 1 1-59.8 0ZM742.7-63.6H282.1c-75 0-136.1 61.1-136.1 136.1V465.1c0 19.7 15.9 35.6 35.6 35.6s35.6-15.9 35.6-35.6v-392.5c0-35.8 29.1-64.9 64.9-64.9h460.6c35.7 0 64.9 29.1 64.9 64.9V696c0 35.8-29.1 64.9-64.9 64.9H282.1c-35.7 0-64.9-29.1-64.9-64.9v-88.6c0-19.7-15.9-35.6-35.6-35.6s-35.6 16-35.6 35.6V696c0 75 61 136.1 136.1 136.1h460.6c75 0 136.1-61.1 136.1-136.1v-623.5c0-75-61-136.1-136.1-136.1zM739.9 323.1h-455V707.3h455v-384.2z m-401.6 53.4h348.2V653.9H338.3v-277.4z"  horiz-adv-x="1024" />

    
    <glyph glyph-name="xiaochengxu" unicode="&#58897;" d="M723.6 533.9c-8.6 0-17.2 0.9-25.9 2.7-67 14.4-109.7 80.5-95.4 147.3 6.9 32.4 26 60.1 53.9 78.2 27.8 18 61.1 24.1 93.4 17.2 32.4-6.9 60.2-26.1 78.2-53.9 18-27.8 24.1-61 17.1-93.4-12.4-58.2-64.1-98.1-121.3-98.1z m-0.1 164.7c-7.7 0-15.3-2.2-22-6.5-9.1-5.9-15.4-15-17.6-25.6-4.7-21.9 9.3-43.6 31.2-48.3 21.9-4.7 43.5 9.3 48.2 31.2 2.3 10.6 0.3 21.5-5.6 30.6-5.9 9.1-15 15.4-25.7 17.7-2.7 0.6-5.6 0.9-8.5 0.9z m80.6-57.9h0.4-0.4zM310.5 107.3c-17.3 0-34.8 1.8-52.1 5.5C194 126.6 138.8 164.6 103 219.9c-35.8 55.3-47.9 121.3-34.1 185.7C82.7 470 120.7 525.2 176 561c55.3 35.8 121.3 47.9 185.6 34.1C426 581.3 481.2 543.3 517 488c35.8-55.3 47.9-121.3 34.1-185.7-13.8-64.4-51.8-119.6-107.1-155.4-40.3-26.1-86.4-39.6-133.5-39.6z m-0.8 410c-31.1 0-61.6-9-88.4-26.3-36.6-23.7-61.8-60.2-70.9-102.8-9.1-42.7-1.1-86.3 22.6-122.9 23.7-36.6 60.2-61.8 102.9-70.9 42.7-9.1 86.3-1.1 122.9 22.6 36.6 23.7 61.8 60.2 70.9 102.8 9.1 42.6 1.1 86.3-22.6 122.9-23.7 36.6-60.2 61.8-102.9 70.9-11.5 2.4-23 3.7-34.5 3.7zM800.5 57.1c-11.2 0-22.5 1.2-33.8 3.6-41.7 8.9-77.4 33.5-100.6 69.4-23.2 35.8-31 78.5-22.1 120.2 18.5 86.1 103.4 141.1 189.6 122.7 86.1-18.4 141.1-103.5 122.7-189.5-8.9-41.7-33.6-77.4-69.4-100.6-26.1-17.1-56-25.8-86.4-25.8z m-0.3 256.8c-44.8 0-85.2-31.3-95-76.8-5.4-25.4-0.7-51.3 13.4-73.1 14.1-21.8 35.8-36.8 61.2-42.2 25.2-5.5 51.3-0.7 73.1 13.4 21.8 14.1 36.8 35.8 42.2 61.2 11.2 52.4-22.3 104.1-74.6 115.3-6.8 1.5-13.6 2.2-20.3 2.2zM492.9 464c-13.6 0-26.8 6.6-34.9 18.8-12.7 19.2-7.4 45.1 11.9 57.8l74.2 48.9c19.3 12.7 45.2 7.3 57.8-11.9 12.7-19.2 7.4-45.1-11.9-57.8l-74.2-48.9c-7.1-4.7-15.1-6.9-22.9-6.9zM650.7 207.1c-3.7 0-7.4 0.5-11.1 1.5l-144.9 39.9c-22.2 6.1-35.2 29.1-29.1 51.3s29 35.4 51.3 29.1L661.7 289c22.2-6.1 35.2-29.1 29.1-51.3-5.1-18.5-21.9-30.6-40.1-30.6z"  horiz-adv-x="1024" />

    
    <glyph glyph-name="souyisou" unicode="&#58898;" d="M442.7 559.8c-7.7 0-15.4 1.7-22.7 5.4-25.2 12.6-35.5 43.2-22.9 68.5l82.7 166c12.6 25.2 43.2 35.5 68.5 22.9 25.2-12.6 35.5-43.2 22.9-68.5l-82.7-166c-9-17.9-27-28.3-45.8-28.3zM289.9 546c-21.3 0-41.2 13.5-48.4 34.9l-28.3 84.5c-8.9 26.7 5.5 55.7 32.2 64.6 26.6 8.9 55.6-5.5 64.6-32.2l28.3-84.5c8.9-26.7-5.5-55.7-32.2-64.6-5.3-1.8-10.8-2.7-16.2-2.7zM191.6 428.3c-7.7 0-15.4 1.7-22.7 5.4l-19.1 9.5c-25.2 12.6-35.5 43.2-22.9 68.5 12.6 25.3 43.2 35.5 68.5 23l19.1-9.5c25.2-12.6 35.5-43.2 22.9-68.5-9-18-27.1-28.4-45.8-28.4zM115.4 245.3c-21.4 0-41.3 13.5-48.4 34.9-8.9 26.7 5.5 55.7 32.2 64.6l90 30.1c26.9 9 55.7-5.5 64.6-32.2 8.9-26.7-5.5-55.7-32.2-64.6l-90-30.1c-5.4-1.8-10.9-2.7-16.2-2.7zM275.8 82.1c-7.7 0-15.4 1.7-22.7 5.4-25.2 12.6-35.5 43.2-22.9 68.5l47.3 95c12.6 25.2 43.3 35.5 68.5 22.9 25.2-12.6 35.5-43.2 22.9-68.5l-47.3-95c-9-17.9-27.1-28.3-45.8-28.3zM558.9-57c-21.3 0-41.2 13.5-48.4 34.9l-83 247.9c-8.9 26.7 5.5 55.7 32.2 64.6 26.6 8.9 55.6-5.5 64.6-32.2l83-247.9c8.9-26.7-5.5-55.7-32.2-64.6-5.3-1.8-10.8-2.7-16.2-2.7zM902.4 145.1c-7.7 0-15.4 1.7-22.7 5.4L551.5 314c-25.2 12.6-35.5 43.2-22.9 68.5 12.6 25.3 43.3 35.5 68.5 22.9l328.1-163.5c25.2-12.6 35.5-43.2 22.9-68.5-8.9-17.9-27-28.3-45.7-28.3zM560.5 461.5c-21.3 0-41.2 13.5-48.4 34.9-8.9 26.7 5.5 55.7 32.2 64.6l307.9 103c26.5 8.9 55.6-5.5 64.6-32.2 8.9-26.7-5.5-55.7-32.2-64.6L576.7 464.1c-5.3-1.8-10.8-2.6-16.2-2.6z"  horiz-adv-x="1024" />

    
    <glyph glyph-name="qianbao" unicode="&#58899;" d="M881.5 529.7c-4.8 0-8.7 3.9-8.7 8.7v43c0 66.8-54.4 121.2-121.2 121.2H117.8c-4.8 0-8.7 3.9-8.7 8.7 0 4.8 3.9 8.7 8.7 8.7h633.8c76.4 0 138.6-62.2 138.6-138.6v-43c0-4.8-3.9-8.7-8.7-8.7zM911.2 507.9c-4.8 0-8.7 3.9-8.7 8.7v87.5c0 71.7-58.3 130-130 130h-625c-4.8 0-8.7 3.9-8.7 8.7s3.9 8.7 8.7 8.7h625c81.3 0 147.5-66.2 147.5-147.5v-87.5c0-4.7-3.9-8.6-8.8-8.6zM852.7 247.2H531.9c-56.9 0-103.1 46.3-103.1 103.2v61.7c0 56.9 46.3 103.2 103.1 103.2h320.8c56.9 0 103.2-46.3 103.2-103.2v-61.7c0-57-46.3-103.2-103.2-103.2zM531.9 445.5c-18.4 0-33.4-15-33.4-33.4v-61.7c0-18.4 15-33.4 33.4-33.4h320.8c18.4 0 33.4 15 33.4 33.4v61.7c0 18.4-15 33.4-33.4 33.4H531.9zM590.5 381.2m-32.7 0a32.7 32.7 0 1 1 65.4 0 32.7 32.7 0 1 1-65.4 0ZM99.2 538.5c19.3 0 34.9 15.6 34.9 34.9v46.1h605.4c29.6 0 53.8-24.1 53.8-53.8v-50.5h59.6c3.4 0 6.8-0.2 10.2-0.5v51c0 68.1-55.4 123.5-123.5 123.5H99.2c-19.3 0-34.9-15.6-34.9-34.9v-81c0-19.2 15.6-34.8 34.9-34.8zM852.7 247.2h-59.6v-50.5c0-29.6-24.1-53.8-53.8-53.8H134.1V449.8c0 19.3-15.6 34.9-34.9 34.9-19.3 0-34.9-15.6-34.9-34.9V108c0-19.3 15.6-34.9 34.9-34.9h640.2c68.1 0 123.5 55.4 123.5 123.5v51c-3.3-0.3-6.7-0.4-10.2-0.4z"  horiz-adv-x="1024" />

    
    <glyph glyph-name="shoucang" unicode="&#58900;" d="M458.3 36.8c-4.4 0-8.8 0.8-13 2.4L87.2 177.9c-13.8 5.4-22.9 18.6-22.9 33.4V370.6c0 19.8 16.1 35.9 35.9 35.9s35.9-16.1 35.9-35.9v-134.7L422.4 125V433L136 529.8v-56.1c0-19.8-16.1-35.9-35.9-35.9s-35.9 16.1-35.9 35.9V579.8c0 11.6 5.6 22.4 15 29.1 9.4 6.7 21.4 8.5 32.4 4.8l358.1-121c14.6-4.9 24.4-18.6 24.4-34v-386.1c0-11.8-5.8-22.9-15.6-29.6-6-4-13.1-6.2-20.2-6.2zM923.8 133.6c-4.4 0-8.8 0.8-13 2.4L552.7 274.7c-13.8 5.4-22.9 18.6-22.9 33.4V668.5c0 11.6 5.6 22.4 15 29.1 9.4 6.7 21.5 8.5 32.4 4.8l358.1-121c14.6-4.9 24.4-18.6 24.4-34v-378.1c0-11.8-5.8-22.9-15.6-29.6-6.1-4-13.2-6.1-20.3-6.1zM601.6 332.7L888 221.8v300l-286.4 96.8v-285.9zM458.3 36.8c-16.9 0-31.9 12-35.2 29.1-3.7 19.4 9.1 38.2 28.5 41.9l465.5 88.7c19.4 3.6 38.2-9.1 41.9-28.5 3.7-19.4-9.1-38.2-28.5-41.9L465 37.5c-2.3-0.4-4.5-0.7-6.7-0.7zM463.1 249.6c-16.5 0-31.3 11.4-35 28.2-4.2 19.3 8.1 38.4 27.4 42.7l102.6 22.4c19.2 4.3 38.4-8.1 42.7-27.4 4.2-19.3-8.1-38.4-27.4-42.7l-102.6-22.4c-2.6-0.5-5.2-0.8-7.7-0.8zM100.2 544c-16.9 0-31.9 12-35.2 29.1-3.7 19.4 9.1 38.2 28.5 41.9L559 703.8c19.4 3.6 38.2-9.1 41.9-28.5s-9.1-38.2-28.5-41.9l-465.5-88.7c-2.3-0.5-4.5-0.7-6.7-0.7z"  horiz-adv-x="1024" />

    
    <glyph glyph-name="tupian" unicode="&#58901;" d="M926.3 57.7H97.7c-18.3 0-33.1 14.8-33.1 33.1V389.4c0 18.3 14.8 33.1 33.1 33.1s33.1-14.8 33.1-33.1v-265.6h762.4V644.7H130.8v-108.8c0-18.3-14.8-33.1-33.1-33.1s-33.1 14.8-33.1 33.1V677.8c0 18.3 14.8 33.1 33.1 33.1h828.5c18.3 0 33.1-14.8 33.1-33.1v-587c0-18.3-14.8-33.1-33-33.1zM443 345.5l29.9-51.8-58.6-101.4h-59.9L443 345.5m0 81.1c-6.1 0-12.2-3-15.6-9l-158.8-275H443l87.2 151-71.6 123.9c-3.4 6.1-9.5 9.1-15.6 9.1zM703.5 435.7L812 247.8v-39.1H572.4l131.1 227m0 114.2c-6.1 0-12.2-3-15.6-9l-230-398.3h420.2v123l-159 275.3c-3.4 6-9.5 9-15.6 9zM380.5 553.4c-20.1 30.1-53.8 46.9-90.3 46.7-7.3-0.2-13.6-5.1-15.6-12.2-1.9-7.1 1-14.5 7.2-18.4 9-5.6 16.3-12.7 22-21.1 22.3-33.3 13.3-78.5-20-100.8-11.3-7.6-24.7-11.8-38.7-12.1-7.3-0.2-13.6-5.1-15.6-12.2-1.9-7 1-14.5 7.2-18.4 17.2-10.7 36.7-16 56.1-16 20.5 0 40.9 5.9 58.6 17.7 48.5 32.6 61.5 98.4 29.1 146.8z"  horiz-adv-x="1024" />

    
    <glyph glyph-name="qiabao" unicode="&#58902;" d="M821.1 67.3H102.5c-21.6 0-39.1 17.5-39.1 39.1V312.2c0 21.6 17.5 39.1 39.1 39.1s39.1-17.5 39.1-39.1v-166.7h679.5c32.7 0 60.3 20.5 60.3 44.7V466.5H141.6V429c0-21.6-17.5-39.1-39.1-39.1S63.3 407.4 63.3 429v76.6c0 21.6 17.5 39.1 39.1 39.1h818.1c21.6 0 39.1-17.5 39.1-39.1v-315.4c0.1-67.8-62-122.9-138.5-122.9zM98.2 591L750.1 827.7l10-77.3-658.2-173.5zM819.7 562.2l-19.1 171.9-698.7-161.3 2.5-10.6z"  horiz-adv-x="1024" />

    
    <glyph glyph-name="erweima" unicode="&#58903;" d="M467.1 384.3H111.2C85.7 384.3 65 405 65 430.5V577.2c0 25.5 20.7 46.3 46.3 46.3s46.3-20.7 46.3-46.3v-100.4H421V740.2H157.5v-21.7c0-25.5-20.7-46.3-46.3-46.3S65 692.9 65 718.5v67.9c0 25.5 20.7 46.3 46.3 46.3h355.9c25.6 0 46.3-20.7 46.3-46.3v-355.9c-0.1-25.5-20.8-46.2-46.4-46.2zM216.5 681.2h145.4v-145.4H216.5zM909.5-63.6h-312c-25.6 0-46.3 20.7-46.3 46.3V294.6c0 25.5 20.7 46.3 46.3 46.3h312c25.6 0 46.3-20.7 46.3-46.3v-311.9c-0.1-25.5-20.8-46.3-46.3-46.3zM643.8 29h219.4V248.4H643.8V29zM701 191.2h105v-105H701zM562.5 766.3h95.7v-95.7h-95.7zM832.6 766.3h95.7v-95.7h-95.7zM832.6 479.9h95.7v-95.7h-95.7zM562.5 479.9h95.7v-95.7h-95.7zM736.9 575.6h95.7v-95.7h-95.7zM562.5 671.3h270.1v-95.7H562.5zM111.2 364h100.9v-100.9H111.2zM396.1 364H497v-100.9H396.1zM396.1 62H497v-100.9H396.1zM111.2 62h100.9v-100.9H111.2zM212.1 162.9h184V62h-184zM295.2 263.8h100.9v-100.9H295.2z"  horiz-adv-x="1024" />

    
    <glyph glyph-name="huatongyuyin" unicode="&#58904;" d="M511.3 170.7c-109.7 0-198.9 89.2-198.9 198.9V477.5c0 22.1 17.9 40 40 40s40-17.9 40-40v-107.9c0-65.6 53.3-118.9 118.9-118.9S630.2 304 630.2 369.6V633.2c0 65.5-53.3 118.9-118.9 118.9s-118.9-53.3-118.9-118.9c0-22.1-17.9-40-40-40s-40 17.9-40 40c0 109.7 89.2 198.9 198.9 198.9s198.9-89.2 198.9-198.9v-263.6c0-109.6-89.2-198.9-198.9-198.9zM511.3 55.4c-193.7 0-351.4 142.4-351.4 317.5 0 22.1 17.9 40 40 40s40-17.9 40-40c0-131 121.7-237.5 271.3-237.5S782.6 242 782.6 372.9c0 22.1 17.9 40 40 40s40-17.9 40-40c0.1-175.1-157.6-317.5-351.3-317.5zM511.3-26.2c-22.1 0-40 17.9-40 40v81.5c0 22.1 17.9 40 40 40s40-17.9 40-40v-81.5c0-22-17.9-40-40-40zM618.8-63.6h-215c-22.1 0-40 17.9-40 40s17.9 40 40 40h215c22.1 0 40-17.9 40-40s-17.9-40-40-40z"  horiz-adv-x="1024" />

    
    <glyph glyph-name="gongzhonghao" unicode="&#58905;" d="M484.8 563.5h198.7v-198.7H484.8zM267.2 296.9h189.9v-46.6H267.2zM267.2 220.6h435.6V174H267.2zM267.2 144.3h435.6v-46.6H267.2zM646.1 719.9c19.5-62.8 68.7-112.6 131.1-132.8v-569.6H213.7V719.9h432.4M720.2 801H174.9c-23.3 0-42.2-18.9-42.2-42.2v-780.1c0-23.3 18.9-42.2 42.2-42.2H816c23.3 0 42.2 18.9 42.2 42.2V660.2c-6.1-0.9-12.2-1.9-18.6-1.9-67.1 0-121.6 54.4-121.6 121.6 0.1 7.2 1 14.2 2.2 21.1zM823.7 763.9m-70 0a70 70 0 1 1 140 0 70 70 0 1 1-140 0Z"  horiz-adv-x="1024" />

    
    <glyph glyph-name="wenjianchuansong" unicode="&#58906;" d="M914.1 37.1H106.9c-11.2 0-21.8 4.5-29.7 12.4-7.9 7.9-12.3 18.7-12.2 29.8l2.4 355.2c0.2 23 18.9 41.6 41.9 41.6h0.3c23.1-0.2 41.7-19 41.6-42.2l-2.1-313.1h722.8l-3.1 370H520.4c-19.5 0-36.4 13.4-40.8 32.4L450.5 648H152.4l-0.5-80.6c-0.1-23-18.9-41.6-41.9-41.6h-0.3c-23.1 0.2-41.8 19-41.6 42.2l0.8 122.2c0.1 23 18.9 41.6 41.9 41.6h373c19.5 0 36.4-13.4 40.8-32.4l29.1-124.7h356.6c23 0 41.7-18.5 41.9-41.5l3.9-453.8c0.1-11.2-4.3-21.9-12.1-29.9-8-8-18.7-12.4-29.9-12.4zM948.8 577.9c-2.3 0-4.7 0.8-6.6 2.3-18.1 14.7-47.5 14.9-47.8 14.9H496.5c-5.8 0-10.5 4.7-10.5 10.5s4.7 10.5 10.5 10.5h397.9c1.7 0 37.1-0.2 61-19.6 4.5-3.6 5.2-10.2 1.6-14.7-2.1-2.6-5.1-3.9-8.2-3.9zM948.8 619.1c-2.3 0-4.7 0.8-6.6 2.3-18.1 14.7-47.5 14.9-47.8 14.9H496.5c-5.8 0-10.5 4.7-10.5 10.5s4.7 10.5 10.5 10.5h397.9c1.7 0 37.1-0.2 61-19.6 4.5-3.6 5.2-10.2 1.6-14.7-2.1-2.6-5.1-3.9-8.2-3.9zM948.8 656.8c-2.3 0-4.7 0.8-6.6 2.3-18.1 14.7-47.5 14.9-47.8 14.9H496.5c-5.8 0-10.5 4.7-10.5 10.5s4.7 10.5 10.5 10.5h397.9c1.8 0 37.1-0.3 61-19.6 4.5-3.6 5.2-10.2 1.6-14.7-2.1-2.6-5.1-3.9-8.2-3.9zM512.6 299.6l-129.8 111v-221.9zM675.9 299.6l-129.8 111v-221.9z"  horiz-adv-x="1024" />

    
    <glyph glyph-name="weixinyundong" unicode="&#58907;" d="M537-41.4c-94.1 0-185.9 31.3-261.5 90.5l-212.2-6.5 75.9 141.1c9.6 17.9 31.8 24.6 49.7 15 17.9-9.6 24.5-31.9 15-49.7l-15.6-29 112.6 3.4 10.7-9c82.1-68.6 189.2-96.2 293.8-75.6C795.8 76.3 920.2 261.7 882.7 452c-37.5 190.4-222.9 314.9-413.2 277.2-170.3-33.5-289.6-183.6-283.7-356.7 0.7-20.3-15.2-37.3-35.4-37.9-20.5-1.6-37.3 15.2-38 35.4-7.1 209.4 137.1 390.8 342.9 431.3 230.1 45.4 454.1-105 499.5-335.1 45.3-230.1-105-454.2-335.1-499.5-27.6-5.4-55.2-8.1-82.7-8.1zM570.9 605.1m-53.9 0a53.9 53.9 0 1 1 107.8 0 53.9 53.9 0 1 1-107.8 0ZM690.4 441.1c0 5.7-4.6 10.2-10.2 10.2-13-1-39.5-7.1-54.9-12.1-6.9-2.2-14.2 1.4-16.7 8.2l-27.4 74.2-0.2-0.2c-3.7 11.3-13.3 20.3-25.8 22.1l-6.9 1c-5.1 0.7-9.9-0.1-14.5-1.7v0.3l-71.1-29.9c-13.7-5.4-24.7-16-30.8-29.3l-38.5-84.3v-1.8c0-0.4-0.4-0.6-0.4-1 0-5.7 4.6-10.2 10.2-10.2 2.9 0 5.4 1.2 7.3 3.1 13.4 13.1 38.5 48.1 50.3 64.9 4.1 5.9 10.2 10 17.1 11.7l28.1 6.8-14.4-103.7-52.6-95.8c-3.8-6.9-8.7-13.2-14.4-18.5L368.1 202s0.1 0 0.1 0.1c-5.1-5-8.4-12-8.4-19.8 0-15.3 12.4-27.7 27.7-27.7 6.9 0 13.1 2.8 18 7-0.2-0.3-0.5-0.8-0.8-1l2.2 2c0.1 0.1 0.2 0.2 0.3 0.2l47.3 42.8c19.9 17.7 35.8 39.4 46.7 63.6l14.4 32.1L556 259c9.4-9.8 13.7-23.4 11.8-36.8l-10.4-66.8c0.1-0.1 0.2-0.2 0.4-0.3-0.1-0.9-0.5-1.7-0.5-2.7 0-15.3 12.4-27.7 27.7-27.7 13.3 0 23.9 9.6 26.6 22.2 0.4 0.4 0.7 0.8 0.7 0.8l10.4 94.2c2 15.8-3.2 31.6-14.1 43.2l-49.7 53.4 11.9 85.9 20-25c7.1-8.9 19.6-11.2 29.4-5.4l64 37.7c-1.3-0.6-2.7-0.9-4.2-0.9 5.8 0 10.4 4.6 10.4 10.3z"  horiz-adv-x="1024" />

    
    <glyph glyph-name="zhifu" unicode="&#58908;" d="M535.6-37.9c-93.7 0-185 31.2-260.2 90l-211.2-6.5 75.4 140.5c9.6 17.8 31.7 24.4 49.5 14.9 17.8-9.6 24.4-31.7 14.9-49.5l-15.6-28.9 112.1 3.4 10.7-8.9c81.7-68.4 188.4-95.8 292.4-75.3C793 79.1 916.8 263.6 879.5 453.1 842.3 642.5 657.8 766.4 468.3 729c-169.5-33.4-288.2-182.7-282.4-355 0.7-20.2-15.1-37.1-35.3-37.8-20.2-1.4-37.1 15.1-37.8 35.3-7.1 208.4 136.5 388.9 341.3 429.2 229.3 45.1 452-104.5 497.1-333.5 45.1-229-104.6-452-333.5-497.1-27.3-5.4-54.8-8-82.1-8zM537.7 376.7L387.8 504.4c-15.4 13.1-17.2 36.1-4.1 51.5 13.1 15.4 36.1 17.2 51.5 4.1l104.2-88.8L653.1 561c15.9 12.6 38.8 9.8 51.3-6s9.8-38.8-6-51.3l-160.7-127zM538.6 180.5c-20.2 0-36.5 16.3-36.5 36.5V418.8c0 20.2 16.3 36.5 36.5 36.5s36.5-16.3 36.5-36.5V217c0-20.2-16.3-36.5-36.5-36.5zM644.5 253.4H429.2c-20.2 0-36.5 16.3-36.5 36.5s16.3 36.5 36.5 36.5h215.4c20.2 0 36.5-16.3 36.5-36.5-0.1-20.1-16.4-36.5-36.6-36.5zM645.9 344.4H430.6c-20.2 0-36.5 16.3-36.5 36.5s16.3 36.5 36.5 36.5H646c20.2 0 36.5-16.3 36.5-36.5s-16.4-36.5-36.6-36.5z"  horiz-adv-x="1024" />

    
    <glyph glyph-name="labagonggao" unicode="&#58909;" d="M916.8 22.4c-4.7 0-9.5 0.8-14.1 2.4l-606 213.3H106.5c-23.5 0-42.5 19-42.5 42.5V534c0 23.5 19 42.5 42.5 42.5h189.1l347.3 131.8c21.8 8.4 46.5-2.7 54.8-24.7 8.3-22-2.7-46.5-24.7-54.8L311.3 491.6c-9.7-3.7-20.4-3.7-30-0.1H149v-168.3h135.2c8.4 2.9 17.6 3.4 26.2 0.3l564-198.6V697l-65.7-22.3c-22.2-7.6-46.4 4.4-53.9 26.6-7.5 22.3 4.4 46.4 26.6 53.9l121.9 41.4c12.9 4.4 27.2 2.3 38.5-5.7 11.1-8 17.7-20.8 17.7-34.6v-691.5c0-13.8-6.7-26.7-17.9-34.7-7.5-5-16.1-7.7-24.8-7.7zM296.2 251.5c-17.6 0-31.9 14.3-31.9 31.9V531.3c0 17.6 14.3 31.9 31.9 31.9s31.9-14.3 31.9-31.9v-247.9c0-17.6-14.3-31.9-31.9-31.9zM296.2 197h-65.1v-228.8h142.5V154.3z"  horiz-adv-x="1024" />

    
    <glyph glyph-name="shoufukuan" unicode="&#58910;" d="M920 532.4c-22.3 0-40.3 18-40.3 40.3V635c0 42.6-34.7 77.3-77.3 77.3h-72.9c-22.3 0-40.3 18-40.3 40.3s18 40.3 40.3 40.3h72.9c87.1 0 157.9-70.9 157.9-157.9v-62.3c0.1-22.3-18-40.3-40.3-40.3zM103.6 532.4c-22.3 0-40.3 18-40.3 40.3V635c0 87.1 70.9 157.9 157.9 157.9h87.5c22.3 0 40.3-18 40.3-40.3s-18-40.3-40.3-40.3h-87.5c-42.6 0-77.3-34.7-77.3-77.3v-62.3c0.1-22.3-18-40.3-40.3-40.3zM308.8-23.4h-87.5c-87.1 0-157.9 70.9-157.9 157.9v87.2c0 22.3 18 40.3 40.3 40.3s40.3-18 40.3-40.3v-87.2c0-42.6 34.7-77.3 77.3-77.3h87.5c22.3 0 40.3-18 40.3-40.3 0-22.3-18.1-40.3-40.3-40.3zM802.4-23.4h-72.9c-22.3 0-40.3 18-40.3 40.3 0 22.3 18 40.3 40.3 40.3h72.9c42.6 0 77.3 34.7 77.3 77.3v87.2c0 22.3 18 40.3 40.3 40.3 22.3 0 40.3-18 40.3-40.3v-87.2c0.1-87.1-70.8-157.9-157.9-157.9zM521.7 358.6L356.4 499.4c-17 14.4-19 39.9-4.5 56.8 14.4 17 39.9 19 56.8 4.5l115-97.9L649 561.9c17.6 13.9 42.8 10.8 56.6-6.6 13.8-17.5 10.9-42.8-6.6-56.6L521.7 358.6zM522.7 142c-22.3 0-40.3 18-40.3 40.3V404.9c0 22.3 18 40.3 40.3 40.3s40.3-18 40.3-40.3v-222.6c0-22.2-18.1-40.3-40.3-40.3zM639.5 222.5H402c-22.3 0-40.3 18-40.3 40.3s18 40.3 40.3 40.3h237.6c22.3 0 40.3-18 40.3-40.3s-18.1-40.3-40.4-40.3zM641.1 322.8H403.6c-22.3 0-40.3 18-40.3 40.3s18 40.3 40.3 40.3h237.6c22.3 0 40.3-18 40.3-40.3s-18.1-40.3-40.4-40.3z"  horiz-adv-x="1024" />

    
    <glyph glyph-name="qunliao" unicode="&#58911;" d="M510.2 379c-3.8 0-7.7 0.6-11.5 2-40.2 14.5-74.2 40.9-98.2 76.4-30.1 44.5-41.1 98-31 150.7 10.1 52.8 40.2 98.4 84.7 128.5 44.4 30.1 98 41.1 150.7 31 52.7-10.1 98.4-40.2 128.5-84.7 62.2-91.8 38.1-217-53.7-279.3-13.5-9.2-28.1-16.6-43.4-22.3-17.5-6.5-37 2.5-43.4 20.1-6.5 17.5 2.5 37 20.1 43.4 10.1 3.7 19.9 8.7 28.8 14.8 60.9 41.3 76.9 124.4 35.6 185.3-20 29.5-50.3 49.5-85.3 56.2-34.9 6.7-70.5-0.6-100-20.6s-49.5-50.2-56.2-85.3c-6.7-35 0.6-70.5 20.5-100 15.9-23.5 38.5-41 65.2-50.7 17.6-6.3 26.7-25.7 20.3-43.3C537 387.6 524 379 510.2 379zM259.2 3.5c-18.7 0-33.8 15.1-33.8 33.8 0 137.8 59.3 302 341.6 302 51.9 0 98.5-5.5 138.5-16.5 18-4.9 28.6-23.6 23.7-41.6-4.9-18-23.5-28.5-41.6-23.7-34.2 9.3-74.8 14.1-120.7 14.1C380 271.6 293 197.1 293 37.2c0.1-18.6-15.1-33.7-33.8-33.7zM216.1 332.9c-13.8 0-26.7 8.5-31.7 22.1-6.5 17.5 2.5 37 20.1 43.4 10.1 3.7 19.8 8.7 28.8 14.8 60.9 41.3 76.9 124.4 35.6 185.3-24.9 36.7-66.2 58.6-110.6 58.6h-0.2c-13 0-25.9-1.9-38.3-5.7-17.8-5.5-36.7 4.7-42.2 22.6-5.4 17.9 4.7 36.8 22.6 42.2 18.7 5.6 38.2 8.6 57.8 8.6h0.2c66.9 0 129.2-33 166.7-88.3 30.1-44.5 41.1-98 31-150.7-10.1-52.8-40.2-98.4-84.7-128.5-13.5-9.2-28.1-16.7-43.4-22.3-3.9-1.4-7.9-2.1-11.7-2.1zM253.4 217.6c-1.9 0-3.9 0.2-5.9 0.5-26.6 4.7-56.6 7.1-89.1 7.1-20.3 0-39.8-0.9-57.8-2.8-18.7-1.6-35.2 11.7-37.1 30.2-1.9 18.6 11.6 35.2 30.2 37.1 20.3 2 42 3.1 64.6 3.1 36.5 0 70.4-2.7 100.9-8.1 18.4-3.2 30.7-20.8 27.4-39.2-2.8-16.3-17.1-27.9-33.2-27.9zM898.3 348.2c-3.8 0-7.7 0.6-11.5 2-35.1 12.6-64.8 35.7-85.7 66.7-26.3 38.8-35.9 85.5-27.1 131.6 8.9 46 35.1 85.9 73.9 112.2 18.4 12.5 38.7 21.3 60.3 26.1 18.3 3.9 36.3-7.4 40.4-25.7 4.1-18.2-7.4-36.3-25.7-40.4-13.2-2.9-25.7-8.3-37.1-16-23.9-16.2-40-40.7-45.4-68.9-5.5-28.3 0.5-57 16.6-80.9 12.9-19 31.1-33.2 52.7-41 17.6-6.3 26.7-25.7 20.4-43.3-5-13.9-18-22.4-31.8-22.4zM685.7-3.4c-18.7 0-33.8 15.1-33.8 33.8 0 114.6 47.5 252.7 273.5 260.7 19 1.6 34.3-13.9 35-32.6 0.6-18.7-14-34.4-32.6-35-142-5-208.2-66.3-208.2-193.1-0.1-18.7-15.2-33.8-33.9-33.8z"  horiz-adv-x="1024" />

    
    <glyph glyph-name="biaoqian" unicode="&#58912;" d="M522.1-55c-5.7 0-11.4 1.4-16.5 4.3L160.8 139c-8 4.4-13.9 11.8-16.4 20.5s-1.5 18.1 2.9 26.1l259.1 470.6c4 7.3 10.6 12.9 18.5 15.7L634.3 747c27 9.7 57 7.3 82.2-6.5 25.2-13.9 43.3-37.9 49.6-66l14.8-65.9c4.1-18.5-7.5-36.8-26-41-18.4-4.2-36.8 7.5-41 26l-14.8 65.9c-2 9-7.6 16.5-15.7 20.9-8 4.4-17.3 5.2-26 2l-197.2-70.7L224 182.6l284.6-156.7 236.2 429.2-6.2 27.7c-4.1 18.5 7.5 36.8 26 40.9 18.6 4.2 36.8-7.5 41-26l9-40.3c1.8-8.1 0.6-16.7-3.4-24l-259-470.6c-4.4-8-11.8-13.9-20.5-16.4-3.2-1-6.4-1.4-9.6-1.4zM571.568671 477.132132a45.4 45.4 0 1 1 43.786278 79.544968 45.4 45.4 0 1 1-43.786278-79.544968ZM593.4 482.6c-17.9 0-33 13.9-34.2 32-1.3 18.9 12.9 35.2 31.8 36.5 8.2 0.7 192.2 17.9 217.9 250.2 2.1 18.9 19.1 32.4 37.9 30.3 18.8-2.1 32.4-19.1 30.3-37.9-32.3-290.8-278.8-310.9-281.3-311-0.8-0.1-1.6-0.1-2.4-0.1zM474.1 91.7c-2.7 0-5.5 0.7-8.1 2l-166.2 89.2c-8.3 4.5-11.5 14.9-7 23.2 4.5 8.3 14.8 11.5 23.2 7l166.2-89.2c8.3-4.5 11.5-14.9 7-23.2-3.1-5.8-9-9-15.1-9z"  horiz-adv-x="1024" />

    
    <glyph glyph-name="dingyuehao" unicode="&#58913;" d="M250.8 643.3h180.3v-44.2H250.8zM250.8 570.8h413.8v-44.2H250.8zM250.8 498.3h413.8v-44.2H250.8zM737 755.1v-354.6c-4.5 0.2-9 0.3-13.5 0.3-164.5 0-298.3-133.8-298.3-298.3 0-4.9 0.1-9.8 0.4-14.6H201.8V755.1H737m36.9 77h-609c-22.1 0-40.1-18-40.1-40.1v-741c0-22.1 18-40.1 40.1-40.1h357.3c-12.7 27.9-20 58.9-20 91.6 0 122.2 99.1 221.3 221.3 221.3 32.3 0 62.8-7.1 90.5-19.5V792c0 22.1-17.9 40.1-40.1 40.1zM725.9 287.7c-97 0-175.6-78.6-175.6-175.6s78.6-175.6 175.6-175.6 175.6 78.6 175.6 175.6-78.6 175.6-175.6 175.6z m0-60.4c31.8 0 57.6-25.8 57.6-57.6s-25.8-57.6-57.6-57.6-57.6 25.8-57.6 57.6 25.8 57.6 57.6 57.6zM617.6 32.5c0 31.8 48.5 57.6 108.3 57.6s108.3-25.8 108.3-57.6H617.6z"  horiz-adv-x="1024" />

    
    <glyph glyph-name="paizhao" unicode="&#58914;" d="M749.6 589.9h210.7v-53.7H749.6zM828.1 668.4h53.7v-210.7h-53.7zM858.5 41.2H99.1c-19.8 0-35.8 16-35.8 35.8V594.1c0 19.8 16 35.8 35.8 35.8h200.3l38.5 64.1c10.2 21.4 31.6 35 55.5 35h170.8c23.9 0 45.3-13.6 55.5-35l38.5-64.1H689c19.8 0 35.8-16 35.8-35.8s-16-35.8-35.8-35.8h-51c-12.6 0-24.2 6.6-30.7 17.4l-49.1 81.7H399.5l-49.1-81.7c-6.5-10.8-18.1-17.4-30.7-17.4H135v-445.5h687.8V385.1c0 19.8 16 35.8 35.8 35.8s35.8-16 35.8-35.8V77c-0.1-19.8-16.1-35.8-35.9-35.8zM478.8 176.1c-94.6 0-171.5 76.9-171.5 171.5s76.9 171.5 171.5 171.5 171.5-76.9 171.5-171.5-76.9-171.5-171.5-171.5z m0 271.3c-55.1 0-99.9-44.8-99.9-99.9s44.8-99.9 99.9-99.9 99.9 44.8 99.9 99.9-44.8 99.9-99.9 99.9zM244.9 482.2h-59c-9.9 0-17.9 8-17.9 17.9 0 9.9 8 17.9 17.9 17.9h59c9.9 0 17.9-8 17.9-17.9 0-9.9-8-17.9-17.9-17.9z"  horiz-adv-x="1024" />

    
    <glyph glyph-name="shipin" unicode="&#58915;" d="M684.7 94.7H100.4c-20.5 0-37.1 16.6-37.1 37.1V382.2c0 20.5 16.6 37.1 37.1 37.1s37.1-16.6 37.1-37.1v-213.3h510V595.6h-510V543c0-20.5-16.6-37.1-37.1-37.1S63.3 522.5 63.3 543v89.7c0 20.5 16.6 37.1 37.1 37.1h584.2c20.5 0 37.1-16.6 37.1-37.1v-500.8c0.1-20.6-16.5-37.2-37-37.2zM921.9 93.9c-10.2 0-20.2 4.2-27.4 12.1L665.2 357.2c-12.9 14.2-12.9 35.8 0 50l229.3 251.2c10.3 11.3 26.5 15.1 40.8 9.6 14.3-5.5 23.7-19.3 23.7-34.6V131c0-15.3-9.4-29.1-23.7-34.6-4.4-1.6-8.9-2.5-13.4-2.5zM742.8 382.2l141.9-155.5v311L742.8 382.2zM521.6 208.4c-3.4 0-6.8 0.2-10.3 0.7-174.8 23.3-256.9 166-284.1 226.3-12.4 27.6-6.7 59.5 14.6 81.2l10.1 10.4c21.3 21.8 54.9 25 79.9 7.5l37.1-25.8c11.6-8.1 19.4-20.7 21.5-34.7 2-14-1.9-28.3-10.7-39.4L372 425c8.3-11.3 20.9-27.1 28.9-33.8 15.7-13.2 45.1-32.8 52.5-37.8 0.3-0.1 0.5-0.3 0.8-0.4 22.1 21.4 56.2 25.7 83 10.6l34.9-19.8c15.2-8.6 26.1-23.3 30-40.3 3.9-17 0.4-35-9.5-49.4l-9.4-13.6c-14-20.4-37-32.1-61.6-32.1zM278 458.3c23.4-51.8 93.6-174.4 240.7-194 7.8-0.9 14.7 2 18.8 7.9l9.4 13.6c1.4 2 1.3 4 1.1 5.4-0.3 1.3-1.1 3.1-3.2 4.3L510 315.3c-5.5 3.1-12.5 2.2-17-2.2l-3.8-3.7c-23.3-23-51.5-9.8-60.8-5.4l-3.5 1.9c-1.6 1.1-39.1 25.7-59.6 42.9-18 15.1-40.1 46.4-42.6 49.9l-3.7 7.4c-6.2 19.2-3.6 37.3 7.4 50.9l7.2 9-33.2 23c-2.7 1.8-6.2 1.5-8.4-0.8l-10.1-10.4c-5.4-5.4-6.8-13-3.9-19.5z"  horiz-adv-x="1024" />

    
    <glyph glyph-name="hongbao" unicode="&#58916;" d="M509.2 290.4L388.6 393.2c-12.6 10.7-14.1 29.6-3.4 42.2 10.8 12.6 29.6 14.1 42.2 3.4l83.2-70.9 90.8 71.7c13 10.3 31.8 8 42.1-5s8-31.8-5-42.1L509.2 290.4zM509.9 133.1c-16.5 0-29.9 13.4-29.9 29.9V324.9c0 16.5 13.4 29.9 29.9 29.9s29.9-13.4 29.9-29.9V163c0.1-16.5-13.3-29.9-29.9-29.9zM594.9 191.6H422.2c-16.5 0-29.9 13.4-29.9 29.9s13.4 29.9 29.9 29.9h172.7c16.5 0 29.9-13.4 29.9-29.9 0.1-16.4-13.3-29.9-29.9-29.9zM596.1 264.6H423.3c-16.5 0-29.9 13.4-29.9 29.9s13.4 29.9 29.9 29.9h172.8c16.5 0 29.9-13.4 29.9-29.9s-13.4-29.9-29.9-29.9zM850-63.6H173c-22.1 0-39.9 17.9-39.9 39.9V527.5c0 22.1 17.9 39.9 39.9 39.9s39.9-17.9 39.9-39.9v-511.3H810V527.5c0 22.1 17.9 39.9 39.9 39.9s39.9-17.9 39.9-39.9v-551.2c0.1-22-17.8-39.9-39.8-39.9zM516 526c-116.9 0-227.9 44.6-312.4 125.7-30.9 29.6-48.6 72.2-48.6 116.9v23.6c0 22.1 17.9 39.9 39.9 39.9H837c22.1 0 39.9-17.9 39.9-39.9v-28.6c0-40.7-16.3-80.1-44.6-108C747.3 572 635 526 516 526zM236.3 752.3c3.1-16.7 11-31.8 22.5-42.9 69.5-66.7 160.9-103.5 257.1-103.5 97.9 0 190.4 37.9 260.3 106.7 10.6 10.4 17.6 24.5 19.9 39.8H236.3z"  horiz-adv-x="1024" />

    
    <glyph glyph-name="shuikeyikan" unicode="&#58917;" d="M421.4 367.3c-3.7 0-7.5 0.6-11.2 2-48.1 17.3-88.7 48.9-117.5 91.4-36.1 53.2-49.2 117.2-37.1 180.3 12.1 63.1 48.1 117.7 101.3 153.8 53.1 36 117.2 49.2 180.3 37 63.1-12.1 117.7-48.1 153.7-101.3 36-53.2 49.2-117.2 37.1-180.3-12.1-63.1-48.1-117.7-101.3-153.8-16.3-11-33.7-20-51.9-26.7-17.2-6.4-36.3 2.5-42.6 19.7-6.3 17.2 2.5 36.3 19.7 42.6 13.2 4.9 25.9 11.4 37.7 19.3 38.5 26.1 64.6 65.7 73.4 111.3 8.8 45.7-0.7 92.1-26.8 130.6s-65.7 64.6-111.3 73.4c-45.7 8.8-92.1-0.7-130.6-26.9-38.5-26.1-64.6-65.7-73.4-111.3-8.8-45.7 0.7-92.1 26.8-130.6 20.9-30.8 50.3-53.6 85.1-66.2 17.2-6.2 26.2-25.2 20-42.5-5.1-13.4-17.8-21.8-31.4-21.8zM110.2-63.6c-18.3 0-33.2 14.8-33.2 33.2 0 166.9 72 365.8 414.8 365.8 63.6 0 120.6-6.8 169.5-20.2 17.7-4.9 28.1-23.1 23.2-40.8-4.8-17.6-23.1-27.8-40.8-23.2-43.1 11.8-94.3 17.8-152 17.8-237.7 0-348.4-95.1-348.4-299.4 0.1-18.3-14.8-33.2-33.1-33.2zM735.5-55.3c-88.8 0-163.1 62.9-199.4 100.4-20.1 20.7-20.1 53 0 73.7 15.8 16.2 32.6 31 49.9 43.9 11 8.2 26.6 5.9 34.8-5.1 8.2-11 5.9-26.6-5.1-34.8-15.2-11.3-30-24.3-43.9-38.7-1.2-1.3-1.2-3.1 0-4.4 24.9-25.7 90.7-85.3 163.7-85.3s138.8 59.6 163.7 85.3c1.2 1.3 1.2 3.1 0 4.4-24.9 25.6-90.6 85.3-163.7 85.3-21.4 0-43.8-5.1-66.7-15.1-12.6-5.4-27.3 0.3-32.8 12.8-5.5 12.6 0.2 27.3 12.8 32.8 29.2 12.8 58.4 19.3 86.7 19.3 88.8 0 163.1-62.9 199.4-100.4 20.1-20.7 20.1-53 0-73.7-36.3-37.5-110.6-100.4-199.4-100.4zM735.5 6.6c41.6 0 75.4 33.7 75.4 75.4 0 4.1-0.6 8.1-1.2 12-4.8-1.5-9.9-2.5-15.2-2.5-28.4 0-51.5 23-51.5 51.5 0 4.7 0.8 9.1 2 13.5-3.1 0.4-6.2 1-9.5 1-41.6 0-75.4-33.7-75.4-75.4s33.8-75.5 75.4-75.5z"  horiz-adv-x="1024" />

    
    <glyph glyph-name="tixingshuikan" unicode="&#58918;" d="M361.8 806.4c-167.1-58-286-214.7-297.4-391.2-18.6-284.2 224.3-503.1 490.1-477 1.2 0.1 2.4 0.3 3.5 0.5 21.5 3.9 36.8 23.8 34.6 46-2.3 23.4-23.1 40.5-46.5 38.1-216.6-21.3-414.3 158.3-396.8 390.5 10.6 139.9 104.9 264.2 237 311.6C603 802.6 828.5 666 868.2 449.3c12.1-66.2-5.2-164.2-39.3-223.1-14.7-20.2-47-46.2-77.3-46.5-22.7-0.3-39.3 17.9-52.3 44-10.3 20.7-12.8 44.3-8.5 67C701 346 704 425.2 697 562.6c-7.9 65.7-50.8 83.7-87.3 92-64.6 14.7-162.4 6.7-252.9-69.2-62.7-52.5-97.1-114.6-105.3-189.6-7.8-72.4 13.6-136.2 60.3-179.7 56.8-52.9 136.2-74.1 255.8-59.5 26.9 3.3 54-3.9 75.7-20.1 23.2-17.3 59.9-37.3 109.3-41.7 9.1-0.8 18.3 1 27.4 2.7 61.9 11.3 116.7 62.5 135.2 111.4 34.4 77.2 50.7 178.5 36.6 255.8-48.7 265.8-324.1 434.1-590 341.7z m250.6-251.1c7-137.4-2.9-277.4-21.2-309.4-109.7-18.7-179.7-6.4-221.4 32.4-35.9 33.4-36.5 82.2-33.7 108.3 3.9 36.1 6.2 82.1 65.6 131.8 37.3 31.3 77.3 46.7 112.2 53.1 31.8 5.8 59.5 4.1 77 0.2 20-4.6 20-5.1 21.5-16.4z"  horiz-adv-x="1024" />

    
    <glyph glyph-name="yongdiannaodengru" unicode="&#58919;" d="M920.8 150h-819c-20.9 0-37.9 17-37.9 37.9V469c0 20.9 17 37.9 37.9 37.9s37.9-17 37.9-37.9v-243.2h743.2V652.2H139.7v-67.1c0-20.9-17-37.9-37.9-37.9s-37.9 17-37.9 37.9v105c0 20.9 17 37.9 37.9 37.9h819c20.9 0 37.9-17 37.9-37.9v-502.2c0-20.9-16.9-37.9-37.9-37.9zM671 40.3H351.7c-11.4 0-21.7 6.8-26.1 17.3-4.5 10.5-2.2 22.6 5.6 30.8L433.5 195c5.4 5.6 12.8 8.7 20.5 8.7h114.6c7.7 0 15.1-3.1 20.5-8.7l102.4-106.6c7.9-8.2 10.1-20.4 5.6-30.8-4.4-10.5-14.7-17.3-26.1-17.3z m-252.6 56.8h185.9l-47.8 49.7h-90.4l-47.7-49.7z"  horiz-adv-x="1024" />

    
    <glyph glyph-name="sousuo" unicode="&#58920;" d="M866.6-63.6c-12.4 0-24.7 5.4-33 15.9l-197 247.2c-14.5 18.2-11.5 44.7 6.7 59.2 118.4 94.4 137.9 267.5 43.6 385.9-94.4 118.4-267.5 138-385.9 43.6-118.4-94.4-138-267.5-43.6-385.9C318.6 225.5 416.8 187 514.2 202c23 3.6 44.5-12.3 48-35.3 3.5-23-12.3-44.5-35.3-48C400 99 271.4 149.4 191.5 249.8c-59.7 75-86.7 168.7-75.9 263.9 10.7 95.2 58 180.6 132.9 240.3 154.7 123.2 381 97.8 504.3-57 114.3-143.5 100.5-348.7-25.6-476l172.3-216.2c14.5-18.2 11.5-44.7-6.7-59.2-7.7-6.2-17-9.2-26.2-9.2z"  horiz-adv-x="1024" />

    
    <glyph glyph-name="miandarao" unicode="&#58921;" d="M323 571.3c-5.9 0-11.8 1.5-17.3 4.6-16.7 9.6-22.6 30.9-13 47.6 44.1 77.1 128.6 125 220.5 125 41.1 0 81.8-9.7 117.9-28.1 17.2-8.7 24-29.7 15.2-46.9-8.7-17.2-29.7-24-46.9-15.2-26.3 13.4-56.2 20.5-86.3 20.5-66.9 0-128.3-34.4-159.9-89.9-6.3-11.3-18.1-17.6-30.2-17.6zM818.5 55H363.9c-19.3 0-34.9 15.6-34.9 34.9s15.6 34.9 34.9 34.9H770c-43.5 44.4-70.3 94.5-71.7 97.2-2.7 5-4.1 10.6-4.1 16.3V510.5c0 19-7.7 66.6-16.4 80-15.4 6.2-24.6 22.6-21.2 39.4 3.8 18.8 22.1 30.9 41.2 27.2 65.4-13.4 66.2-145.3 66.2-146.6v-263.1c10.9-18.6 43-68.9 85.3-99.5 18.2-13.2 25.9-36.2 19.1-57.2-6.9-21.4-27-35.7-49.9-35.7zM256 55h-47.9c-23 0-43 14.3-49.9 35.7-6.8 21.1 0.9 44 19.1 57.2 42.3 30.6 74.3 80.9 85.3 99.5v246c0 19.3 15.6 34.9 34.9 34.9s34.9-15.6 34.9-34.9v-255.2c0-5.7-1.4-11.3-4.1-16.3-1.4-2.7-28.2-52.8-71.8-97.2 19-0.3 34.4-15.8 34.4-34.9 0-19.2-15.6-34.8-34.9-34.8zM564.5 765H462.1c-19.3 0-34.9 15.6-34.9 34.9s15.6 34.9 34.9 34.9h102.5c19.3 0 34.9-15.6 34.9-34.9s-15.7-34.9-35-34.9zM273.4-63.6c-4.6 0-9.2 1.2-13.5 3.7-12.4 7.4-16.4 23.5-8.9 35.9l471 784c7.4 12.3 23.4 16.5 35.9 8.9 12.4-7.4 16.4-23.5 8.9-35.9L295.9-50.9c-4.9-8.1-13.6-12.7-22.5-12.7z"  horiz-adv-x="1024" />

    
    <glyph glyph-name="zhiding" unicode="&#58922;" d="M576.8 751.9h382.6v-79.5H576.8zM699.8 136.2h259.6v-79.5H699.8zM711.3 546.6h248v-79.5h-248zM806 341.4h153.3v-79.5H806zM496.8-40.3H279.5c-22 0-39.8 17.8-39.8 39.8V162.1H103.1c-13.8 0-26.6 7.1-33.8 18.8-7.2 11.7-7.9 26.3-1.8 38.6L352.6 792c13.5 27 57.7 27 71.2 0l285.1-572.4c6.1-12.3 5.4-27-1.8-38.6-7.3-11.7-20-18.8-33.8-18.8H536.6v-162.6c0-22.2-17.8-39.9-39.8-39.9z m-177.5 79.5h137.8V201.8c0 22 17.8 39.8 39.8 39.8H609L388.2 685.1 167.3 241.6h112.2c22 0 39.8-17.8 39.8-39.8v-162.6z"  horiz-adv-x="1024" />

    
    <glyph glyph-name="biaoxing" unicode="&#58923;" d="M260.4-43.6c-8.6 0-17.2 2.7-24.5 8-12.8 9.3-19.2 25.1-16.6 40.7L242 136.9c3.9 22.7 25.4 37.9 48.1 34 22.7-3.9 37.9-25.4 34-48.1l-8.3-48.6 176.8 92.9c12.1 6.4 26.6 6.4 38.8 0L708 74.2 674.2 271c-2.3 13.5 2.2 27.3 12 36.8l143 139.4L631.6 476c-13.6 2-25.3 10.5-31.4 22.8l-88.4 179.1-88.4-179.1c-6.1-12.3-17.8-20.8-31.4-22.8l-197.6-28.8 143-139.4c16.5-16.1 16.8-42.4 0.7-58.9-16-16.5-42.4-16.8-58.9-0.7L75.9 446.6c-11.3 11.1-15.4 27.6-10.5 42.7 4.9 15.1 17.9 26.1 33.6 28.3l259.5 37.7 116 235.1c14.1 28.5 60.6 28.5 74.7 0l116-235.1 259.5-37.7c15.7-2.3 28.7-13.3 33.6-28.3 4.9-15 0.8-31.6-10.6-42.7L760 263.5l44.3-258.4c2.7-15.6-3.8-31.4-16.6-40.7-12.8-9.4-29.8-10.6-43.9-3.2l-232.1 122-232.1-122c-5.9-3.2-12.6-4.8-19.2-4.8z"  horiz-adv-x="1024" />

    
    <glyph glyph-name="wifi" unicode="&#58924;" d="M63.3 556.9l78.6-90.9c112.9 61.8 237.3 98 369 98s256-36.3 368.9-98l78.6 90.9C823 639.3 672.4 690 510.9 690S198.8 639.3 63.3 556.9zM249.6 363.9l85.6-99c56.3 18.9 114.5 32.3 175.7 32.3 61.2 0 119.3-13.4 175.6-32.2l85.6 99c-81.9 36.3-169.1 59.2-261.2 59.2-92.2-0.1-179.4-23.1-261.3-59.3zM432.9 169.5l77.9-90.2 77.9 90.2c-25.7 4.5-51.2 9.6-77.9 9.6-26.6-0.1-52.2-5.2-77.9-9.6z"  horiz-adv-x="1024" />

    
    <glyph glyph-name="fanhui" unicode="&#58925;" d="M900.7 324.9h-485c-32.4 0-58.7 26.3-58.7 58.7s26.3 58.7 58.7 58.7h484.9c32.4 0 58.7-26.3 58.7-58.7s-26.2-58.7-58.6-58.7zM334 57.6c-17.7 0-35.3 8-46.8 23.2l-211 278.4c-16.8 22.2-15.7 53.1 2.6 74.1l224 256c21.4 24.4 58.4 26.9 82.8 5.5 24.4-21.3 26.9-58.4 5.5-82.8L198.6 392l182.2-240.3c19.6-25.8 14.5-62.6-11.3-82.2-10.7-8-23.2-11.9-35.5-11.9z"  horiz-adv-x="1024" />

    
    <glyph glyph-name="weixin" unicode="&#58926;" d="M137.4 390.7c17.5 0.6 31.2 15.3 30.6 32.8-5.1 149.6 98 279.3 245.2 308.2 164.5 32.5 324.7-75 357.1-239.5 4.8-24.6 6.2-49.1 5.1-73.1 3.6-0.8 7.2-1.5 10.8-2.5 18.3-5.2 35.4-12.7 51.2-21.7 3.8 35.7 2.4 72.5-4.9 109.6C793.4 703.3 599.8 833.2 401 794 223.1 759 98.5 602.2 104.7 421.3c0.6-17.4 15-32 32.7-30.6zM506.2 131.7c-82.4-9.4-164.8 14.8-229.3 68.7l-9.3 7.7-97.3-2.9 13.5 25.1c8.3 15.4 2.5 34.7-12.9 43-15.5 8.3-34.7 2.5-43-12.9L62.3 138.5l183.4 5.6c65.3-51.1 144.6-78.2 225.9-78.2 20.9 0 41.9 2.1 62.9 5.7-12.3 18.5-21.8 38.8-28.3 60.1zM705.3-29.4c50.2-4.2 100.6 8.5 143.5 36.7l113-12.8-34.2 78.7c-4.3 10-15.9 14.5-25.9 10.2-10-4.3-14.5-15.9-10.2-25.9l7-16.2-59.9 6.8-6.1-4.3c-46.8-33-105.2-43-160.1-27.3-99.9 28.4-158.1 132.9-129.7 232.8 28.4 99.9 132.9 158.2 232.8 129.6 89.4-25.4 146.4-110.8 135.6-202.9-1.3-10.8 6.5-20.6 17.2-21.8 10.9-1.8 20.6 6.5 21.8 17.2 13.1 111.4-55.9 214.6-163.9 245.3-120.8 34.4-247-35.9-281.4-156.7-34.4-120.8 35.9-247 156.7-281.4 14.5-4.2 29.2-6.8 43.8-8zM351.9 507.7m-40.8 0a40.8 40.8 0 1 1 81.6 0 40.8 40.8 0 1 1-81.6 0ZM604.6 507.7m-40.8 0a40.8 40.8 0 1 1 81.6 0 40.8 40.8 0 1 1-81.6 0ZM653.9 238.4m-23.2 0a23.2 23.2 0 1 1 46.4 0 23.2 23.2 0 1 1-46.4 0ZM792.9 238.4m-23.2 0a23.2 23.2 0 1 1 46.4 0 23.2 23.2 0 1 1-46.4 0Z"  horiz-adv-x="1024" />

    
    <glyph glyph-name="zhinanzhen" unicode="&#58881;" d="M511.8-64.7C265-64.7 64.3 136.1 64.3 382.8c0 120 46.9 232.8 132 317.4 16.1 16 42.1 15.9 58.2-0.2 16-16.1 15.9-42.2-0.2-58.2-69.5-69.1-107.8-161.1-107.8-259.1 0-201.4 163.8-365.2 365.2-365.2s365.2 163.8 365.2 365.2c0 187.5-142 342.4-324.1 362.9v-88.9c0-22.7-18.4-41.1-41.1-41.1-22.7 0-41.1 18.4-41.1 41.1V830.3h41.1c246.8 0 447.5-200.8 447.5-447.5S758.6-64.7 511.8-64.7zM510 255.3c-4.9 0-9.9 0.3-14.9 0.9-33.4 3.9-63.3 20.6-84.1 47-43 54.4-33.8 133.7 20.7 176.8 54.4 43.1 133.7 33.8 176.8-20.7 43-54.4 33.8-133.7-20.7-176.8-22.5-17.8-49.7-27.2-77.8-27.2z m-0.4 177.1c-11.1 0-22.4-3.6-31.8-11-22.2-17.5-25.9-49.8-8.4-72 8.5-10.7 20.7-17.5 34.3-19.1 13.8-1.7 27 2.2 37.8 10.7 10.7 8.5 17.5 20.7 19.1 34.3 1.6 13.6-2.2 27-10.7 37.7-10.1 12.7-25.1 19.4-40.3 19.4zM331.9 610.4L510 493.9l-112.4-84.1zM691.8 155.3l-72.3 200.1-107.8-89.9z"  horiz-adv-x="1024" />

    
    <glyph glyph-name="tongxunlu" unicode="&#58882;" d="M419 365.3c-3.7 0-7.5 0.6-11.2 2-47.9 17.2-88.4 48.7-117 91-35.9 53-49 116.7-36.9 179.5C266 700.6 301.8 755 354.8 790.9 407.7 826.8 471.5 840 534.3 827.8c62.8-12.1 117.2-47.9 153.1-100.9 35.9-53 49-116.7 36.9-179.5-12.1-62.8-47.9-117.2-100.9-153.1-16.1-10.9-33.5-19.9-51.7-26.6-17.1-6.4-36.1 2.5-42.4 19.6-6.3 17.1 2.5 36.1 19.6 42.4 13.1 4.8 25.7 11.3 37.4 19.3 38.4 26 64.3 65.4 73.1 110.8 8.7 45.5-0.8 91.7-26.7 130-26 38.4-65.4 64.3-110.8 73-45.4 8.7-91.7-0.7-130-26.7-79.2-53.6-100-161.7-46.3-240.9 20.7-30.6 50-53.4 84.7-65.9 17.2-6.2 26.1-25.1 19.9-42.3-4.9-13.3-17.6-21.7-31.2-21.7zM109.2-63.6c-18.2 0-33 14.8-33 33 0 166.1 71.6 364.1 412.9 364.1 65.4 0 123.7-7.2 173.4-21.4 17.5-5 27.7-23.3 22.7-40.8-5-17.5-23.3-27.7-40.8-22.7-43.8 12.5-96.1 18.8-155.3 18.8-236.6 0-346.8-94.7-346.8-298 0-18.2-14.8-33-33.1-33zM684.8 137.1h260.5V71H684.8zM768.2 2.5h135.5v-66.1H768.2zM726.5 259.5h177.2v-66.1H726.5z"  horiz-adv-x="1024" />

    
    <glyph glyph-name="jiahaoyou" unicode="&#58883;" d="M438 369.3c-3.7 0-7.4 0.6-11.1 2-47.5 17.1-87.6 48.3-116 90.2-35.6 52.5-48.6 115.8-36.6 178s47.5 116.2 100 151.8C426.8 826.9 490 840 552.3 827.9c62.3-12 116.2-47.5 151.8-100 35.6-52.5 48.6-115.8 36.6-178-12-62.3-47.5-116.2-100-151.8-16-10.8-33.2-19.7-51.2-26.3-17-6.3-35.8 2.4-42.1 19.4-6.3 17 2.4 35.8 19.4 42.1 13 4.8 25.5 11.2 37.1 19.1 38.1 25.8 63.8 64.8 72.5 109.9 8.7 45.1-0.8 90.9-26.5 128.9-25.8 38-64.8 63.8-109.9 72.4-45 8.6-90.9-0.7-128.9-26.5-78.5-53.2-99.1-160.3-45.9-238.8 20.6-30.4 49.6-52.9 84-65.3 17-6.1 25.9-24.9 19.7-41.9-4.9-13.5-17.5-21.8-30.9-21.8zM130.8-56c-18.1 0-32.8 14.7-32.8 32.8 0 164.7 71 361.1 409.5 361.1 62.8 0 119.1-6.7 167.3-19.9 17.4-4.8 27.7-22.8 22.9-40.2-4.8-17.4-22.8-27.7-40.2-22.9-42.6 11.6-93.1 17.6-150 17.6-234.7 0-343.9-93.9-343.9-295.6-0.1-18.2-14.7-32.9-32.8-32.9zM643.7 143h314.1v-98.3H643.7zM751.6 250.9h98.3v-314.1h-98.3z"  horiz-adv-x="1024" />

    
    <glyph glyph-name="shezhi" unicode="&#58884;" d="M410.1 391.4c-3.5 0-7.1 0.6-10.6 1.9-45.4 16.3-83.6 46.1-110.7 86.1-33.9 50.1-46.4 110.4-34.9 169.9 11.4 59.4 45.3 110.9 95.4 144.8C452.7 864 593.9 836.9 664 733.5c70-103.4 42.9-244.6-60.5-314.7-15.2-10.3-31.7-18.8-48.9-25.1-16.2-5.9-34.2 2.3-40.1 18.5-6 16.2 2.3 34.2 18.5 40.1 12.5 4.6 24.4 10.7 35.4 18.2 74.9 50.8 94.6 153 43.8 227.9s-153 94.6-227.9 43.8c-36.3-24.6-60.8-61.8-69.1-104.8-8.3-43 0.7-86.7 25.3-123 19.6-29 47.3-50.5 80.1-62.3 16.3-5.8 24.7-23.7 18.9-40-4.6-12.8-16.6-20.7-29.4-20.7zM117-14.4c-17.3 0-31.3 14-31.3 31.3 0 157.2 67.8 344.5 390.6 344.5 59.9 0 113.6-6.4 159.6-19 16.7-4.5 26.5-21.7 21.9-38.4-4.6-16.7-21.9-26.4-38.4-21.9-40.7 11.1-88.8 16.8-143.1 16.8-223.9 0-328.1-89.6-328.1-282 0-17.3-13.9-31.3-31.2-31.3zM771.3-64.2h-37.6c-20.9 0-38.6 13.5-45 32.3-17.6-8.9-40.8-5.6-55.1 8.8L607 3.3c-14.7 14.8-17.7 36.9-9 54.6-19 6.2-32.8 24.1-32.8 45.2v37.6c0 20.9 13.5 38.6 32.3 45-3.4 6.6-5.1 14-5.1 21.6 0 12.7 4.9 24.6 13.9 33.6l26.5 26.5c14.2 14.2 37.1 17.7 54.6 9 6.2 19 24.1 32.8 45.2 32.8h37.5c20.9 0 38.6-13.5 45-32.3 17.6 9 40.8 5.6 55.1-8.7l26.6-26.6c14.7-14.8 17.7-36.9 9-54.6 19-6.2 32.8-24.1 32.8-45.2v-37.6c0-20.9-13.5-38.6-32.3-45 9.1-17.8 6.2-40.3-8.7-55.1L871-22.5c-14.2-14.1-37.1-17.7-54.6-9-6.2-18.9-24-32.7-45.1-32.7z m-87 90.8l15.1-7.7c5.5-2.8 11.3-5.3 17.3-7.2l16.4-5.2v-23.3l38.2-0.6 0.6 24.2 16.2 5.3c6 2 11.7 4.4 17.3 7.3l15.2 7.9 16.5-16.5 27.4 26.6-16.7 17.5 7.7 15.2c2.8 5.6 5.3 11.3 7.2 17.3l5.2 16.4h23.3l0.6 38.2-0.6 0.6h-23.6l-5.2 16.2c-2 6-4.4 11.7-7.3 17.3l-7.9 15.3 16.6 16.5-26.6 27.4-17.6-16.7-15.2 7.8c-5.5 2.8-11.3 5.3-17.3 7.2l-16.3 5.2V262l-38.1 0.6-0.6-24.1-16.1-5.3c-6-2-11.8-4.4-17.3-7.3l-15.3-7.9-16.5 16.6-27.4-26.6 16.6-17.6-7.7-15.1c-2.8-5.5-5.3-11.3-7.2-17.3l-5.2-16.4h-23.3l-0.6-38.2 24.2-0.6 5.2-16.2c2-6 4.4-11.7 7.3-17.3l7.9-15.3-16.6-16.5 26.6-27.4 17.6 16.5z m67.6 21.2c-41.2 0-74.7 33.5-74.7 74.7s33.5 74.6 74.7 74.6 74.7-33.5 74.7-74.6c0-41.2-33.5-74.7-74.7-74.7z m0 116.5c-23 0-41.8-18.7-41.8-41.8 0-23 18.7-41.8 41.8-41.8 23 0 41.8 18.7 41.8 41.8 0 23-18.7 41.8-41.8 41.8z"  horiz-adv-x="1024" />

    
    <glyph glyph-name="wo" unicode="&#58885;" d="M445.4 369.4c-3.7 0-7.4 0.6-11.1 2-47.6 17.1-87.8 48.4-116.2 90.4-73.6 108.6-45.1 256.9 63.6 330.5C434.3 828 497.8 841 560.1 829c62.4-12 116.4-47.6 152.1-100.2 35.6-52.6 48.7-115.9 36.7-178.4-12-62.4-47.6-116.4-100.2-152.1-16-10.8-33.2-19.7-51.3-26.4-16.9-6.3-35.9 2.4-42.1 19.4-6.2 17 2.4 35.9 19.5 42.1 13 4.8 25.6 11.3 37.2 19.1 38.1 25.8 63.9 64.9 72.6 110.1s-0.7 91.1-26.6 129.2c-25.8 38.1-64.9 63.9-110.1 72.6-45.2 8.6-91.1-0.7-129.2-26.6-78.6-53.3-99.3-160.7-46-239.3 20.6-30.4 49.7-53 84.1-65.4 17.1-6.1 25.9-24.9 19.8-42-5.2-13.3-17.7-21.7-31.2-21.7zM137.6-56.6c-18.1 0-32.8 14.7-32.8 32.8C104.8 141.2 176 338 515 338c18.1 0 32.8-14.7 32.8-32.8s-14.7-32.8-32.8-32.8c-235.1 0-344.6-94.1-344.6-296.1 0-18.2-14.6-32.9-32.8-32.9zM892.5-56.6c-18.1 0-32.8 14.7-32.8 32.8 0 202-109.5 296.1-344.6 296.1-18.1 0-32.8 14.7-32.8 32.8s14.7 32.8 32.8 32.8c339.1 0 410.2-196.7 410.2-361.8 0-18-14.7-32.7-32.8-32.7z"  horiz-adv-x="1024" />

    
    <glyph glyph-name="weizhi" unicode="&#58886;" d="M484.6 391.5c-3.4 0-6.8 0.6-10.1 1.8-40.3 14.5-74.3 40.9-98.3 76.5-62.2 91.9-38.1 217.3 53.7 279.5 91.9 62.2 217.3 38.2 279.6-53.7 30.1-44.5 41.2-98.1 31-150.9s-40.3-98.5-84.8-128.6c-13.5-9.2-28.1-16.7-43.4-22.3-15.5-5.7-32.7 2.3-38.4 17.7-5.7 15.5 2.2 32.7 17.7 38.3 10.8 4 21 9.2 30.6 15.7 31.3 21.2 52.5 53.3 59.6 90.5 7.1 37.1-0.6 74.8-21.8 106.1-43.8 64.6-132 81.6-196.6 37.8S381.9 568 425.6 503.4c16.9-25 40.8-43.6 69.1-53.8 15.5-5.6 23.6-22.7 18-38.2-4.4-12.4-15.9-19.9-28.1-19.9zM227.4 35.4c-16.5 0-29.9 13.4-29.9 29.9 0 139 59.9 304.7 345.3 304.7 52.8 0 100.1-5.6 140.7-16.7 15.9-4.3 25.3-20.8 20.9-36.7-4.4-15.9-21-25.3-36.7-20.9-35.5 9.7-77.5 14.6-125 14.6-194.8 0-285.5-77.9-285.5-245 0.1-16.5-13.3-29.9-29.8-29.9zM324.6 435c-5.4 0-10.9 1.5-15.9 4.6-23.6 14.9-43.6 34.2-59.4 57.5C187 589 211.1 714.4 303 776.6 333.3 797.1 368.6 809 405 811c17.6 0.8 30.5-11.8 31.4-28.2 0.9-16.5-11.8-30.5-28.2-31.4-25.6-1.4-50.3-9.7-71.7-24.2-64.6-43.8-81.6-131.9-37.8-196.5 11.1-16.4 25.2-30 41.8-40.4 14-8.8 18.2-27.2 9.4-41.2-5.7-9.1-15.4-14.1-25.3-14.1zM100.5 62.8c-16.5 0-29.9 13.4-29.9 29.9 0 148 63.8 243.4 189.5 283.6 15.8 5 32.5-3.7 37.5-19.4s-3.6-32.5-19.3-37.5c-99.6-31.8-148-106-148-226.7 0.1-16.5-13.3-29.9-29.8-29.9zM826.1-7l-16 16.3C798 21.6 691.8 131.8 691.8 200.8c0 74 60.2 134.3 134.3 134.3 74.1 0 134.3-60.2 134.3-134.3 0-69-106.2-179.2-118.3-191.5l-16-16.3z m0 297.2c-49.3 0-89.5-40.1-89.5-89.5 0-33.6 49.7-99.4 89.5-143.2 39.8 43.8 89.5 109.6 89.5 143.2 0 49.4-40.2 89.5-89.5 89.5z m0-148.5c-29.9 0-54.3 24.3-54.3 54.3 0 29.9 24.3 54.3 54.3 54.3 29.9 0 54.3-24.3 54.3-54.3-0.1-30-24.4-54.3-54.3-54.3z m0 79.8c-14.1 0-25.6-11.5-25.6-25.6 0-14.1 11.5-25.6 25.6-25.6 14.1 0 25.6 11.5 25.6 25.6-0.1 14.1-11.5 25.6-25.6 25.6z"  horiz-adv-x="1024" />

    
    <glyph glyph-name="pinglun" unicode="&#58887;" d="M835.5 109.7H314.4c-68.3 0-123.9 55.6-123.9 123.9V353.5c0 20.5 16.6 37 37 37s37-16.6 37-37v-119.9c0-27.5 22.3-49.8 49.8-49.8h521.1c27.4 0 49.8 22.3 49.8 49.8V585.1c0 27.5-22.3 49.8-49.8 49.8h-521c-27.4 0-49.8-22.3-49.8-49.8v-52.8l-72.3-50.6c14.2-12.3 17.1-33.6 6.1-49.3-11.7-16.8-34.8-20.9-51.6-9.1l-83.6 58.5 127.2 89.1v14.3c0 68.3 55.6 123.9 123.9 123.9h521.1c68.3 0 123.9-55.6 123.9-123.9v-351.5c0-68.5-55.5-124-123.8-124zM751.4 323.4H665c-35.7 0-64.8 29.1-64.8 64.8v60.9c0 35.7 29.1 64.8 64.8 64.8h86.3c35.7 0 64.8-29.1 64.8-64.8v-60.9c0.1-35.7-29-64.8-64.7-64.8z m-86.4 135c-5 0-9.3-4.2-9.3-9.3v-60.9c0-5 4.2-9.3 9.3-9.3h86.3c5 0 9.3 4.2 9.3 9.3v60.9c0 5-4.2 9.3-9.3 9.3H665zM472.8 323.4h-86.3c-35.7 0-64.8 29.1-64.8 64.8v60.9c0 35.7 29.1 64.8 64.8 64.8h86.3c35.7 0 64.8-29.1 64.8-64.8v-60.9c0-35.7-29.1-64.8-64.8-64.8z m-86.4 135c-5 0-9.3-4.2-9.3-9.3v-60.9c0-5 4.2-9.3 9.3-9.3h86.3c5 0 9.3 4.2 9.3 9.3v60.9c0 5-4.2 9.3-9.3 9.3h-86.3z"  horiz-adv-x="1024" />

    
    <glyph glyph-name="pengyouquan" unicode="&#58888;" d="M594.3 196.4H431.2L315.9 311.8v163l115.3 115.3h163.1l115.3-115.3v-163.1L594.3 196.4z m-147 38.7h131l92.7 92.7v131l-92.7 92.6h-131l-92.7-92.6v-131l92.7-92.7zM709.6 420L353 777.6l29.8 9.8C487.6 822 600.7 813.4 699 764l10.7-5.4V420zM425.7 759.4l245.2-245.8v221c-76.7 35.8-162.7 44.5-245.2 24.8zM875.7 191.2l-338.5 5.1L900 547.5l9.4-29.9c13.4-42.6 19.8-86.4 19.1-130.3-1-64.9-16.8-127.3-47.2-185.5l-5.6-10.6z m-244.4 42.3l221-3.3c24.1 49.7 36.7 102.7 37.5 157.6 0.5 29.2-2.6 58.5-9 87.2L631.3 233.5zM511.2-41.4h-3c-64.9 0.8-127.4 16.5-185.6 46.7l-10.6 5.5 4 365.1 356.4-383-29.1-9.2c-37-11.8-85.2-25.1-132.1-25.1z m-160.3 75.7c49.8-23.9 102.8-36.4 157.7-37.1 31.3-0.5 64.1 6.4 93.3 14.4l-248.3 267-2.7-244.3zM128.8 235l-9.7 29.9c-13.8 42.4-20.7 86.2-20.6 130.1 0.2 64.9 15.4 127.5 45.1 186l5.4 10.6 336.9-1.7L128.8 235z m44.1 317.8c-23.5-50-35.5-103.1-35.7-158-0.1-29.2 3.3-58.3 10-87l245.4 243.9-219.7 1.1zM512.8-57C267.5-57 68 142.5 68 387.8c0 89.3 26.4 175.5 76.3 249.2 15.8 23.2 33.8 45.1 53.7 65 15.1 15.1 39.5 15.2 54.7 0.1 15.1-15.1 15.1-39.6 0.1-54.7-16.4-16.5-31.4-34.6-44.4-53.8-41.2-60.8-63-132-63-205.8 0-202.6 164.8-367.4 367.4-367.4s367.4 164.8 367.4 367.4-164.8 367.4-367.4 367.4c-38.9 0-77.1-6-113.6-17.9-18.2-5.9-36.1-13.3-53.2-22-19-9.7-42.3-2.1-52 16.9-9.7 19-2.2 42.3 16.9 52 20.7 10.6 42.4 19.6 64.5 26.7 44.2 14.4 90.5 21.7 137.5 21.7C758 832.5 957.5 633 957.5 387.8S758-57 512.8-57z"  horiz-adv-x="1024" />

    
    <glyph glyph-name="duihua" unicode="&#58889;" d="M429.2 434.9h270.4v-68.6H429.2zM515.8 295.1h140.6v-68.6H515.8zM472.5 561.9h183.9v-68.6H472.5zM564.4-2.9c-116 0-224.7 50-300.4 137.6L68.5 167l94.9 115.6c12 14.6 33.7 16.8 48.3 4.7 14.6-12 16.8-33.6 4.7-48.3l-19.6-23.8L300.6 198l8.2-10.1c62.8-77.7 156-122.3 255.6-122.3C745.6 65.6 893 213 893 394.2S745.6 722.8 564.4 722.8c-162.1 0-298.5-115.9-324.3-275.6-3-18.7-20.5-31.5-39.3-28.4-18.7 3-31.4 20.6-28.4 39.3 31.2 193.1 196.1 333.3 392 333.3 219 0 397.1-178.2 397.1-397.2S783.4-2.9 564.4-2.9z"  horiz-adv-x="1024" />

    
    <glyph glyph-name="saoyisao" unicode="&#58890;" d="M824.4 528.2c-19.7 0-35.6 15.9-35.6 35.6v48.4c0 30.7-25 55.7-55.8 55.7h-56.6c-19.7 0-35.6 15.9-35.6 35.6s15.9 35.6 35.6 35.6H733c70 0 126.9-56.9 126.9-126.9v-48.4c0.1-19.7-15.8-35.6-35.5-35.6zM221.9 528.2c-19.7 0-35.6 15.9-35.6 35.6v48.4c0 70 56.9 126.9 126.9 126.9h67.9c19.7 0 35.6-15.9 35.6-35.6s-15.9-35.6-35.6-35.6h-67.9c-30.7 0-55.8-25-55.8-55.7v-48.4c0.1-19.7-15.8-35.6-35.5-35.6zM381.2 34.1h-67.9c-70 0-126.9 56.9-126.9 126.9v67.7c0 19.6 15.9 35.6 35.6 35.6s35.6-15.9 35.6-35.6V161c0-30.7 25-55.7 55.8-55.7h67.9c19.7 0 35.6-15.9 35.6-35.6s-16.1-35.6-35.7-35.6zM733.1 34.1h-56.6c-19.7 0-35.6 15.9-35.6 35.6s15.9 35.6 35.6 35.6h56.6c30.7 0 55.8 25 55.8 55.7v67.7c0 19.6 15.9 35.6 35.6 35.6s35.6-15.9 35.6-35.6V161c-0.1-70-57.1-126.9-127-126.9zM908.6 328.5H118.4c-29.5 0-53.4 23.9-53.4 53.4s23.9 53.4 53.4 53.4h790.2c29.5 0 53.4-23.9 53.4-53.4s-23.9-53.4-53.4-53.4z"  horiz-adv-x="1024" />

    
    <glyph glyph-name="kanyikan" unicode="&#58891;" d="M511.8 112.5c-186.3 0-343.5 133.4-420.6 212.9-35.9 37-35.9 95 0 132 33.6 34.6 69.4 66.1 106.4 93.7 14.9 11.1 35.9 8.1 47-6.9 11.1-14.9 8-35.9-6.9-47-34.2-25.5-67.3-54.7-98.3-86.7-10.5-10.8-10.5-27.7 0-38.5 69.8-71.9 210.9-192.5 372.4-192.5S814.5 300.1 884.2 372c10.5 10.8 10.5 27.7 0 38.5C814.4 482.4 673.3 603 511.8 603c-49.6 0-101.4-11.7-154-34.7-17.1-7.5-36.8 0.3-44.2 17.3-7.4 17 0.3 36.8 17.3 44.2 61.2 26.8 122.1 40.4 181 40.4 186.2 0 343.4-133.4 420.6-212.9 35.9-37 35.9-95 0-132-77.2-79.5-234.5-212.8-420.7-212.8zM479.4 500.8c10.6-72.7 69.4-130 142.9-138.2-12.8-49.1-57.5-85.5-110.5-85.5-63 0-114.2 51.2-114.2 114.2 0 51.8 34.6 95.6 81.8 109.5m32.4 55.1c-90.9 0-164.5-73.7-164.5-164.5 0-90.9 73.7-164.5 164.5-164.5 90.9 0 164.5 73.7 164.5 164.5 0 9-1.3 17.6-2.6 26.2-10.6-3.3-21.6-5.6-33.2-5.6-62.1 0-112.4 50.3-112.4 112.4 0 10.2 1.8 20 4.4 29.4-6.9 0.9-13.6 2.1-20.7 2.1z"  horiz-adv-x="1024" />

    


  </font>
</defs>
</svg>
